<?xml version="1.0" encoding="UTF-8" standalone="no"?>
<!DOCTYPE svg PUBLIC "-//W3C//DTD SVG 1.1//EN" "http://www.w3.org/Graphics/SVG/1.1/DTD/svg11.dtd">
<svg xmlns="http://www.w3.org/2000/svg" version="1.1" viewBox="0 0 795 713" width="795.0pt" height="713.0pt">
<path d="M 0.00 0.00 L 795.00 0.00 L 795.00 275.63 C 788.95 242.52 781.56 209.97 771.04 177.96 C 765.32 161.16 759.03 144.45 749.83 129.18 C 745.60 122.25 740.39 115.13 733.90 110.16 C 727.72 105.52 720.48 101.84 713.55 98.44 C 696.62 90.36 679.27 83.80 661.69 77.31 C 611.63 59.21 560.35 43.62 509.25 28.70 C 497.01 25.28 484.83 21.52 472.51 18.41 C 441.45 11.52 409.55 7.56 377.95 4.09 C 363.33 2.71 348.68 1.11 334.00 0.46 C 303.86 -0.57 273.36 5.22 246.77 19.78 C 236.04 25.70 226.05 32.70 217.38 41.39 C 214.36 44.40 212.69 47.88 210.47 51.46 C 156.61 139.96 102.74 228.44 49.03 317.03 C 40.93 330.57 32.52 343.98 24.70 357.69 C 9.77 388.42 1.30 422.86 0.23 457.00 C -0.58 483.25 3.14 509.56 11.53 534.46 C 15.70 546.21 23.37 557.12 31.47 566.51 C 47.34 584.76 67.16 600.32 87.11 613.88 C 128.26 641.39 173.70 663.07 220.22 679.84 C 261.86 694.69 304.99 705.84 349.03 710.42 C 370.19 712.57 391.86 713.14 413.04 711.05 C 434.40 708.97 456.06 703.95 475.36 694.36 C 479.42 692.43 482.69 689.15 486.41 686.37 C 544.95 640.14 603.15 592.60 657.75 541.75 C 680.18 520.67 701.81 499.25 722.12 476.09 C 736.90 459.17 751.15 441.07 762.87 421.88 C 774.37 403.01 783.09 382.84 787.31 361.08 C 792.75 333.95 790.91 304.33 795.00 276.88 L 795.00 713.00 L 0.00 713.00 L 0.00 0.00 Z" fill="transparent"/>
<path d="M 334.00 0.46 C 348.68 1.11 363.33 2.71 377.95 4.09 C 409.55 7.56 441.45 11.52 472.51 18.41 C 484.83 21.52 497.01 25.28 509.25 28.70 C 560.35 43.62 611.63 59.21 661.69 77.31 C 679.27 83.80 696.62 90.36 713.55 98.44 C 720.48 101.84 727.72 105.52 733.90 110.16 C 740.39 115.13 745.60 122.25 749.83 129.18 C 759.03 144.45 765.32 161.16 771.04 177.96 C 781.56 209.97 788.95 242.52 795.00 275.63 L 795.00 276.88 C 790.91 304.33 792.75 333.95 787.31 361.08 C 783.09 382.84 774.37 403.01 762.87 421.88 C 751.15 441.07 736.90 459.17 722.12 476.09 C 701.81 499.25 680.18 520.67 657.75 541.75 C 603.15 592.60 544.95 640.14 486.41 686.37 C 482.69 689.15 479.42 692.43 475.36 694.36 C 456.06 703.95 434.40 708.97 413.04 711.05 C 391.86 713.14 370.19 712.57 349.03 710.42 C 304.99 705.84 261.86 694.69 220.22 679.84 C 173.70 663.07 128.26 641.39 87.11 613.88 C 67.16 600.32 47.34 584.76 31.47 566.51 C 23.37 557.12 15.70 546.21 11.53 534.46 C 3.14 509.56 -0.58 483.25 0.23 457.00 C 1.30 422.86 9.77 388.42 24.70 357.69 C 32.52 343.98 40.93 330.57 49.03 317.03 C 102.74 228.44 156.61 139.96 210.47 51.46 C 212.69 47.88 214.36 44.40 217.38 41.39 C 226.05 32.70 236.04 25.70 246.77 19.78 C 273.36 5.22 303.86 -0.57 334.00 0.46 Z" fill="#43b7ff"/>
</svg>