<?xml version="1.0" standalone="no"?>
<!DOCTYPE svg PUBLIC "-//W3C//DTD SVG 20010904//EN"
 "http://www.w3.org/TR/2001/REC-SVG-20010904/DTD/svg10.dtd">
<svg version="1.0" xmlns="http://www.w3.org/2000/svg"
 width="2910.000000pt" height="2910.000000pt" viewBox="0 0 2910.000000 2910.000000"
 preserveAspectRatio="xMidYMid meet">
<metadata>
Created by potrace 1.14, written by Peter Selinger 2001-2017
</metadata>
<g transform="translate(0.000000,2910.000000) scale(0.100000,-0.100000)"
fill="#000000" stroke="none">
<path d="M0 14550 l0 -14550 14550 0 14550 0 0 14550 0 14550 -14550 0 -14550
0 0 -14550z m15102 9505 c716 -1115 1211 -2336 1367 -3375 34 -229 51 -454 51
-684 0 -444 -46 -721 -182 -1085 -129 -349 -347 -690 -608 -951 -176 -175
-371 -321 -570 -424 l-95 -49 -47 -286 c-52 -312 -145 -800 -207 -1090 -22
-102 -39 -186 -38 -187 1 -2 34 36 72 84 39 47 126 144 194 214 603 624 1344
979 2121 1017 214 10 418 -2 734 -44 484 -64 782 -95 1196 -127 99 -8 348 -13
620 -13 577 0 679 11 997 106 92 27 174 52 182 55 10 3 11 1 4 -8 -271 -351
-445 -551 -700 -805 -929 -923 -1925 -1467 -2885 -1578 -213 -24 -559 -1 -834
55 -550 113 -1124 358 -1623 692 -133 89 -150 95 -151 49 0 -51 -248 -1010
-381 -1476 -107 -373 -316 -1063 -347 -1144 -3 -9 16 4 43 27 493 432 1038
690 1650 782 183 27 493 37 680 20 167 -14 277 -32 655 -104 1193 -228 2118
-329 2583 -284 75 8 137 10 137 6 0 -17 -232 -272 -377 -415 -928 -915 -2054
-1460 -3028 -1466 -181 -1 -270 9 -455 49 -581 128 -1248 502 -1895 1062 -38
33 -73 58 -76 54 -10 -11 -218 -644 -403 -1227 -354 -1116 -475 -1438 -904
-2400 -576 -1294 -948 -2067 -1499 -3107 -58 -109 -109 -198 -114 -198 -5 0
-72 34 -149 76 l-140 76 39 72 c644 1176 1024 1926 1558 3076 510 1097 628
1394 1043 2615 125 369 250 734 278 813 48 138 49 142 25 126 -73 -47 -252
-140 -355 -183 -559 -237 -1139 -265 -1702 -84 -386 124 -690 300 -1086 630
-316 263 -509 407 -814 608 -245 162 -416 261 -646 374 -213 105 -342 157
-525 211 -77 23 -174 52 -215 64 l-75 23 220 71 c861 279 1726 416 2520 399
385 -8 637 -39 955 -118 523 -128 891 -336 1250 -706 247 -254 445 -556 570
-872 21 -53 36 -78 41 -70 11 20 204 621 304 944 210 680 500 1744 472 1731
-349 -155 -577 -225 -887 -273 -144 -22 -588 -25 -750 -5 -363 46 -685 148
-1076 341 -293 144 -531 290 -799 491 -619 461 -1209 1110 -1612 1770 -45 74
-78 136 -74 138 5 1 81 -9 169 -22 89 -14 289 -42 444 -61 959 -121 1969 -255
2152 -286 249 -42 536 -128 769 -230 689 -302 1296 -882 1675 -1602 l41 -77
10 37 c76 288 321 1492 321 1576 0 8 -54 45 -123 85 -68 39 -170 106 -227 149
-123 91 -325 284 -417 398 -278 344 -448 768 -493 1228 -25 252 -5 606 51 887
68 350 157 613 394 1175 476 1127 765 1968 831 2415 13 93 15 151 10 300 -6
159 -5 183 7 170 7 -8 75 -109 149 -225z m-5116 -2941 c-2 -5 -1820 -1373
-4040 -3038 -2219 -1666 -4033 -3032 -4031 -3036 2 -4 1820 -1369 4040 -3035
l4035 -3028 0 -399 c0 -329 -2 -398 -13 -391 -8 4 -2067 1549 -4577 3433
-4118 3090 -4561 3425 -4544 3437 11 7 2069 1551 4574 3431 l4555 3419 3 -391
c1 -215 0 -396 -2 -402z m13704 -2639 c2505 -1879 4559 -3421 4563 -3425 7 -6
-9059 -6820 -9130 -6864 -10 -6 -13 75 -13 392 l0 399 4034 3026 c2219 1665
4037 3031 4040 3036 3 5 -1812 1373 -4034 3040 l-4040 3032 0 401 c0 319 3
398 13 390 6 -5 2062 -1547 4567 -3427z"/>
</g>
</svg>
