<?xml version="1.0" standalone="no"?>
<!DOCTYPE svg PUBLIC "-//W3C//DTD SVG 20010904//EN"
 "http://www.w3.org/TR/2001/REC-SVG-20010904/DTD/svg10.dtd">
<svg version="1.0" xmlns="http://www.w3.org/2000/svg"
 width="2742.000000pt" height="2742.000000pt" viewBox="0 0 2742.000000 2742.000000"
 preserveAspectRatio="xMidYMid meet">
<metadata>
Created by potrace 1.14, written by Peter Selinger 2001-2017
</metadata>
<g transform="translate(0.000000,2742.000000) scale(0.100000,-0.100000)"
fill="#000000" stroke="none">
<path d="M14106 22742 c2 -178 -1 -225 -21 -337 -83 -469 -381 -1318 -850
-2420 -58 -137 -108 -257 -110 -265 -2 -8 -17 -48 -34 -87 -77 -187 -182 -549
-226 -783 -3 -14 -7 -36 -10 -50 -5 -28 -11 -70 -30 -220 -14 -103 -15 -581
-2 -640 3 -14 8 -45 11 -70 6 -46 8 -54 27 -150 41 -208 139 -466 252 -665
192 -338 508 -649 865 -849 111 -62 108 -58 92 -147 -5 -30 -12 -67 -15 -84
-12 -71 -16 -94 -30 -165 -8 -41 -17 -88 -20 -105 -4 -28 -7 -41 -20 -105 -2
-14 -7 -36 -9 -50 -2 -14 -21 -104 -41 -200 -20 -96 -39 -184 -41 -195 -6 -31
-11 -54 -29 -135 -9 -41 -18 -86 -21 -100 -3 -14 -11 -50 -19 -80 -8 -30 -16
-66 -19 -80 -3 -14 -7 -34 -10 -45 -3 -11 -13 -57 -22 -102 -10 -46 -21 -83
-25 -83 -4 0 -18 21 -30 48 -33 67 -109 197 -181 310 -222 345 -535 687 -843
918 -280 211 -546 356 -864 474 -161 59 -439 131 -601 156 -25 3 -54 8 -65 10
-11 3 -40 7 -65 10 -25 2 -90 11 -145 19 -55 8 -122 17 -150 20 -27 3 -61 7
-75 10 -14 2 -47 7 -75 10 -115 14 -158 20 -225 30 -14 2 -50 6 -80 10 -30 4
-66 8 -80 10 -116 17 -141 20 -230 30 -36 4 -67 8 -70 10 -3 2 -39 6 -80 10
-41 4 -77 8 -80 10 -3 2 -34 6 -70 9 -36 4 -78 9 -95 13 -16 3 -41 7 -55 8
-14 2 -52 6 -85 9 -33 3 -69 8 -80 10 -11 2 -51 7 -90 12 -38 4 -72 8 -75 9
-3 1 -36 5 -75 9 -38 5 -77 10 -85 11 -8 2 -46 6 -85 11 -38 4 -72 8 -75 9 -3
1 -34 5 -70 10 -36 5 -67 9 -70 10 -3 1 -32 5 -65 9 -33 5 -69 10 -80 12 -89
17 -167 26 -162 17 193 -322 294 -470 507 -743 250 -321 628 -709 957 -982
411 -341 890 -632 1330 -807 179 -71 373 -132 498 -157 22 -4 42 -8 45 -9 3 0
27 -4 53 -9 27 -4 56 -9 65 -11 39 -7 184 -23 277 -30 83 -7 317 -7 390 0 92
8 167 16 195 20 14 2 57 9 95 15 188 29 480 118 677 205 57 26 108 49 115 51
6 3 -5 -60 -29 -153 -22 -87 -41 -166 -43 -175 -2 -9 -13 -50 -24 -90 -11 -40
-30 -109 -41 -153 -12 -44 -28 -105 -36 -135 -8 -30 -17 -62 -19 -70 -7 -30
-195 -677 -219 -755 -13 -44 -42 -138 -64 -210 -103 -334 -297 -934 -306 -942
-2 -2 -16 27 -31 64 -30 77 -53 131 -64 153 -76 149 -103 199 -150 275 -30 50
-63 101 -73 115 -230 312 -449 525 -739 716 -188 125 -396 220 -634 289 -49
14 -103 30 -120 35 -44 13 -249 56 -335 70 -41 7 -82 14 -90 15 -8 2 -44 6
-80 9 -36 4 -76 9 -90 11 -115 19 -750 27 -955 12 -104 -8 -209 -17 -245 -22
-14 -2 -54 -6 -90 -10 -36 -4 -76 -8 -90 -10 -14 -2 -45 -6 -70 -10 -54 -7
-117 -16 -145 -21 -10 -2 -37 -6 -60 -9 -22 -3 -78 -13 -125 -22 -47 -8 -96
-17 -110 -20 -14 -2 -59 -11 -100 -20 -41 -8 -85 -17 -98 -19 -13 -3 -83 -18
-155 -35 -73 -17 -140 -32 -149 -34 -9 -2 -52 -13 -95 -26 -43 -12 -82 -22
-88 -24 -36 -7 -129 -36 -338 -102 l-237 -77 198 -57 c270 -78 362 -113 607
-234 328 -162 503 -266 895 -536 98 -67 410 -308 500 -386 66 -58 276 -226
299 -241 14 -9 28 -19 31 -23 8 -10 248 -169 256 -169 3 0 18 -8 32 -19 41
-29 207 -113 305 -155 173 -73 422 -148 567 -171 25 -4 53 -9 64 -11 10 -2 44
-6 75 -9 31 -4 72 -8 91 -11 46 -5 304 -5 355 1 22 2 69 7 105 10 36 4 67 8
70 10 3 1 25 6 50 9 116 16 293 63 445 118 124 45 334 144 410 193 100 64 97
70 42 -88 -69 -199 -267 -780 -377 -1107 -142 -423 -377 -1061 -440 -1195 -5
-11 -36 -83 -68 -160 -33 -77 -107 -246 -165 -375 -107 -241 -131 -294 -211
-463 -25 -55 -46 -100 -46 -102 0 -1 -27 -61 -61 -131 -33 -71 -77 -163 -96
-204 -20 -41 -55 -115 -78 -165 -171 -367 -438 -908 -623 -1265 -111 -216
-201 -388 -237 -455 -18 -33 -54 -100 -80 -150 -26 -49 -60 -112 -75 -140 -15
-27 -44 -81 -65 -120 -21 -38 -64 -117 -95 -175 -31 -58 -74 -136 -95 -175
-21 -38 -53 -98 -72 -132 l-34 -62 48 -25 c26 -14 73 -39 103 -55 139 -77 140
-78 153 -56 16 26 83 151 180 335 44 85 112 214 149 285 87 165 495 981 570
1140 116 244 173 367 303 650 124 272 146 319 194 428 25 57 153 341 201 447
69 154 200 451 200 455 0 3 11 28 24 57 38 84 184 440 238 583 27 72 53 139
58 150 21 48 246 703 254 740 1 6 9 33 18 60 9 28 44 138 78 245 196 620 428
1330 439 1342 4 4 21 -5 38 -21 29 -27 259 -218 293 -244 9 -7 43 -33 75 -58
71 -55 270 -195 375 -264 425 -279 922 -491 1290 -549 19 -3 46 -8 60 -11 110
-23 464 -23 601 0 13 2 44 6 69 9 37 4 134 22 282 51 96 19 338 92 468 140 97
36 114 42 125 46 11 3 103 44 195 86 442 204 899 503 1300 853 185 161 374
345 477 463 74 85 103 118 159 179 26 28 32 50 12 43 -7 -2 -47 -7 -88 -10
-41 -3 -91 -8 -110 -10 -47 -5 -395 -5 -445 0 -22 2 -76 6 -120 10 -44 3 -96
7 -115 9 -19 2 -71 7 -115 11 -186 15 -669 78 -845 110 -14 2 -45 7 -70 10
-25 3 -52 8 -60 10 -8 2 -37 6 -64 10 -27 3 -52 8 -55 9 -3 2 -33 7 -66 11
-32 3 -62 8 -65 10 -3 2 -23 6 -45 9 -22 4 -87 15 -145 26 -58 11 -121 22
-140 25 -19 3 -42 8 -50 10 -8 2 -31 6 -50 9 -19 3 -114 21 -210 40 -96 19
-224 42 -285 50 -60 9 -128 19 -150 22 -69 10 -496 12 -580 4 -112 -12 -180
-20 -201 -24 -11 -2 -39 -7 -64 -11 -166 -26 -421 -100 -623 -181 -283 -113
-676 -355 -872 -535 -75 -69 -109 -95 -103 -77 11 27 108 335 138 438 16 52
43 140 60 195 17 55 33 107 35 115 2 8 30 107 63 220 33 113 78 270 100 350
66 236 112 404 117 425 2 11 42 171 88 355 47 184 97 388 112 452 l27 117 52
-37 c59 -44 208 -141 251 -166 17 -9 46 -26 65 -38 391 -235 903 -442 1305
-529 33 -7 65 -14 70 -15 17 -4 69 -13 109 -19 21 -4 47 -8 58 -10 11 -3 46
-7 77 -11 31 -3 59 -8 62 -10 9 -5 244 -17 354 -17 93 -1 241 9 275 18 8 2 38
6 65 10 207 26 579 131 835 238 158 65 372 168 395 188 5 5 17 9 27 9 10 0 18
3 18 8 0 4 26 20 58 37 221 115 658 414 892 611 443 373 769 707 1089 1114 58
74 111 141 118 148 16 17 16 23 1 17 -216 -72 -440 -128 -568 -140 -30 -3 -66
-8 -80 -10 -123 -22 -868 -22 -1090 -1 -19 2 -82 7 -140 11 -58 3 -121 8 -140
10 -19 2 -66 6 -105 9 -178 15 -258 24 -435 46 -77 10 -142 17 -218 25 -23 3
-55 7 -70 9 -15 3 -47 7 -72 11 -40 5 -66 8 -150 20 -14 2 -54 7 -90 10 -36 4
-74 9 -85 11 -79 16 -376 21 -539 10 -165 -11 -416 -52 -531 -86 -198 -60
-275 -84 -300 -95 -16 -8 -66 -28 -110 -46 -182 -74 -438 -218 -619 -347 -258
-186 -571 -483 -740 -703 -17 -21 -31 -37 -33 -36 -1 2 4 35 13 73 8 38 17 80
20 94 3 14 12 57 20 95 20 95 62 304 68 335 2 14 7 36 10 50 3 14 8 37 10 53
9 50 27 149 46 242 10 51 14 73 27 154 4 25 8 48 8 51 7 31 18 96 45 272 l24
147 99 51 c592 304 1060 909 1260 1631 41 149 44 160 53 224 3 28 8 53 10 56
1 3 6 39 10 80 3 41 8 82 10 92 5 31 17 277 17 367 0 86 -11 325 -18 390 -2
19 -6 62 -9 94 -4 33 -8 71 -11 85 -2 14 -9 64 -15 111 -61 454 -234 1071
-460 1634 -202 506 -537 1166 -813 1601 -60 94 -240 372 -246 377 -4 4 -6 -86
-5 -200z"/>
<path d="M8564 20131 c-320 -240 -594 -446 -610 -458 -16 -12 -130 -98 -254
-190 -399 -299 -3674 -2757 -3690 -2770 -8 -7 -292 -219 -630 -473 -338 -253
-626 -469 -640 -480 -201 -152 -842 -632 -873 -654 -23 -16 -44 -31 -47 -35
-5 -6 -869 -655 -907 -681 -26 -18 -895 -669 -906 -680 -4 -4 22 -29 58 -56
37 -27 79 -58 93 -70 15 -11 275 -206 577 -433 303 -227 564 -423 580 -436 29
-22 104 -78 161 -120 28 -20 131 -98 149 -112 6 -5 39 -30 75 -56 36 -27 72
-54 80 -60 8 -7 114 -86 235 -177 121 -91 225 -169 230 -173 6 -5 665 -499
1465 -1100 2470 -1852 4772 -3579 4789 -3593 30 -24 626 -470 639 -478 9 -6
12 75 12 392 l0 399 -1867 1401 c-1028 771 -1930 1447 -2005 1504 -75 57 -147
111 -160 120 -55 40 -2064 1548 -2073 1555 -5 5 -444 334 -975 732 -531 398
-973 731 -983 740 -17 17 36 58 1114 867 622 467 1163 873 1203 902 39 29 78
58 86 65 8 7 31 23 50 37 19 14 42 30 50 37 8 7 1255 942 2770 2079 1515 1136
2763 2074 2773 2083 16 16 17 46 15 412 l-3 395 -581 -435z"/>
<path d="M18270 20171 l0 -401 433 -324 c237 -178 443 -332 457 -343 14 -11
597 -448 1295 -972 699 -524 1284 -962 1300 -975 43 -34 492 -369 517 -387 11
-8 26 -18 32 -24 6 -5 56 -44 111 -85 55 -40 105 -78 110 -82 6 -5 100 -76
210 -158 110 -82 205 -153 210 -157 6 -5 774 -581 1708 -1282 933 -700 1697
-1276 1696 -1280 0 -3 -85 -69 -190 -146 -104 -77 -200 -149 -213 -160 -14
-11 -35 -28 -48 -37 -23 -16 -1539 -1153 -1594 -1195 -16 -12 -67 -50 -114
-85 -47 -34 -89 -66 -95 -71 -8 -7 -547 -411 -635 -477 -14 -10 -68 -50 -120
-90 -52 -39 -106 -80 -120 -90 -14 -10 -203 -152 -420 -315 -217 -162 -405
-303 -417 -313 -12 -9 -32 -25 -45 -34 -13 -9 -291 -218 -618 -463 -327 -245
-606 -454 -619 -463 -13 -9 -28 -22 -35 -27 -6 -6 -81 -62 -166 -125 -85 -63
-157 -117 -160 -120 -3 -3 -428 -323 -945 -710 -517 -387 -945 -709 -952 -715
-6 -5 -78 -59 -160 -120 -81 -60 -153 -114 -160 -120 -6 -5 -66 -50 -132 -99
l-121 -90 0 -398 c0 -317 3 -398 13 -392 12 8 3277 2456 3307 2481 8 7 292
219 630 473 338 253 626 469 640 480 83 64 515 388 533 400 12 8 88 64 167
125 80 60 159 119 175 131 17 11 39 28 50 37 11 9 182 137 380 285 198 149
371 278 385 289 14 11 665 500 1448 1088 783 587 1420 1071 1415 1075 -4 4
-406 306 -893 671 -486 365 -891 669 -900 676 -8 6 -130 98 -270 202 -140 105
-268 201 -284 213 -16 13 -88 67 -160 120 -72 53 -135 101 -141 106 -18 15
-3046 2287 -3075 2307 -35 24 -517 386 -533 400 -9 7 -2601 1953 -2849 2138
l-38 29 0 -401z"/>
</g>
</svg>
